<svg width="80" height="14" viewBox="0 0 80 14" fill="none" xmlns="http://www.w3.org/2000/svg">
<g clip-path="url(#clip0_10323_73763)">
<path d="M65.3205 11.9552L66.3161 8.68419C66.3997 8.43064 66.4449 8.166 66.4501 7.89907C66.4702 7.75647 66.4568 7.61116 66.4112 7.47459C66.3655 7.33803 66.2887 7.21397 66.1869 7.11214C66.0851 7.01032 65.961 6.93354 65.8244 6.88786C65.6879 6.84219 65.5426 6.82884 65.4 6.84892C65.019 6.8556 64.6433 6.93998 64.296 7.09691C63.9487 7.25384 63.6371 7.48001 63.3803 7.76156L60.9661 9.99192L61.5076 8.30214C61.5649 8.12117 61.5955 7.93285 61.5986 7.74307C61.5986 7.14664 61.2706 6.84874 60.6145 6.84941C60.2115 6.853 59.8134 6.93745 59.4436 7.09773C59.0738 7.25802 58.74 7.4909 58.4618 7.78256L55.9616 9.99241L56.9042 6.84941H47.9188C46.8659 6.79565 45.8273 7.11158 44.9826 7.74255C44.2811 8.32835 43.8332 9.16258 43.7324 10.0709C43.7051 10.2464 43.6914 10.4239 43.6914 10.6015C43.681 10.9893 43.7629 11.3741 43.9302 11.7241C44.0976 12.0741 44.3457 12.3794 44.654 12.6148C45.5145 13.2865 46.5949 13.6124 47.6833 13.5284C48.6797 13.5667 49.6566 13.246 50.4366 12.6248C50.8029 12.3355 51.1009 11.9689 51.3093 11.5513C51.5178 11.1336 51.6316 10.6751 51.6427 10.2084C51.6577 9.87037 51.6098 9.53242 51.5017 9.21177C51.4326 8.90987 51.2761 8.63506 51.0516 8.42167H53.4279L51.9027 13.529H53.6029C53.799 13.5341 53.994 13.4994 54.1763 13.4268C54.3585 13.3542 54.5241 13.2454 54.663 13.1069L57.9828 10.1939L57.3377 11.8202C57.2592 12.0478 57.2172 12.2865 57.2132 12.5273C57.2132 13.194 57.5914 13.5274 58.3478 13.5274C58.8539 13.5274 59.4628 13.1805 60.1745 12.4868L62.9748 9.98639C62.7302 10.9105 62.5457 11.4696 62.4247 11.9542C62.4029 12.0542 62.392 12.1564 62.3922 12.2587C62.3909 12.5837 62.5113 12.8973 62.7297 13.1379C62.8163 13.253 62.9273 13.3475 63.0547 13.4145C63.1822 13.4815 63.3229 13.5194 63.4668 13.5254H66.8541C67.0827 13.5523 67.3143 13.5325 67.535 13.4672C67.7557 13.402 67.9608 13.2925 68.138 13.1456C68.3151 12.9987 68.4606 12.8174 68.5656 12.6126C68.6706 12.4078 68.7329 12.1838 68.7488 11.9542L65.3205 11.9552ZM48.1333 11.9552C48.0548 11.9622 47.9638 11.9652 47.8583 11.9652C46.9672 11.9652 46.522 11.6838 46.5227 11.1211C46.5239 10.9946 46.5437 10.8689 46.5812 10.748L47.2658 8.41965H49.176L48.1333 11.9552Z" fill="#464749"/>
<path d="M43.9267 11.9544C43.8711 12.2172 43.7627 12.4658 43.6079 12.6853C43.4532 12.9048 43.2554 13.0905 43.0266 13.2311C42.7045 13.426 42.3349 13.5279 41.9585 13.5256H38.6632C38.5022 13.5493 38.338 13.5353 38.1835 13.4847C38.0289 13.434 37.8882 13.3482 37.7725 13.2339C37.6567 13.1196 37.5691 12.98 37.5166 12.8261C37.464 12.6722 37.4479 12.5082 37.4695 12.347C37.4731 12.1037 37.5123 11.8622 37.5861 11.6304L39.0862 6.95312H42.1145L40.5233 11.9539L43.9267 11.9544Z" fill="#464749"/>
<path d="M37.8282 6.84961H35.1085L33.6583 8.11531L32.9408 6.84961H29.4624L31.3561 10.1296L29.2754 11.9564H26.8327L28.4013 6.84961H23.6374C22.538 6.81659 21.4672 7.20251 20.6416 7.92928C20.1946 8.33821 19.8433 8.84063 19.6126 9.40082C19.382 9.961 19.2776 10.5651 19.307 11.1703C19.2982 11.475 19.3512 11.7783 19.4629 12.062C19.5747 12.3456 19.7428 12.6037 19.957 12.8205C20.151 13.0502 20.3942 13.233 20.6687 13.3554C20.9432 13.4779 21.2418 13.5368 21.5422 13.5276C21.9654 13.5623 22.3903 13.4864 22.7753 13.3074C23.1603 13.1284 23.4922 12.8524 23.7384 12.5065C23.7384 13.1869 24.1884 13.5273 25.0885 13.5276H30.055L32.2402 11.6614L33.3173 13.5276H36.7036L34.5349 9.68754L37.8282 6.84961ZM23.8689 11.9564C23.7904 11.9634 23.6984 11.9664 23.5939 11.9664C22.7028 11.9664 22.2576 11.685 22.2583 11.1223C22.2595 10.9957 22.2792 10.87 22.3168 10.7492L23.0013 8.42084H24.9115L23.8689 11.9564Z" fill="#464749"/>
<path d="M76.1727 11.9564L77.7423 6.84961H72.9784C71.879 6.81659 70.8082 7.20251 69.9826 7.92928C69.5355 8.33805 69.184 8.84047 68.9533 9.40069C68.7226 9.96091 68.6184 10.5651 68.648 11.1703C68.6346 11.4731 68.6829 11.7756 68.7899 12.0593C68.8969 12.343 69.0604 12.602 69.2706 12.8205C69.4644 13.0503 69.7076 13.2332 69.9821 13.3557C70.2566 13.4781 70.5553 13.5369 70.8557 13.5276C71.2826 13.5625 71.7113 13.4869 72.1005 13.308C72.4897 13.1292 72.8263 12.8532 73.0779 12.5065C73.0779 13.1869 73.5279 13.5273 74.428 13.5276H77.5903C78.0658 13.5686 78.5393 13.43 78.9177 13.1392C79.296 12.8484 79.5518 12.4264 79.6345 11.9564H76.1727ZM73.2119 11.9564C73.1334 11.9634 73.0414 11.9664 72.9369 11.9664C72.0458 11.9664 71.6023 11.6854 71.6023 11.1223C71.6033 10.9958 71.6229 10.8701 71.6603 10.7492L72.3448 8.42084H74.255L73.2119 11.9564Z" fill="#464749"/>
<path d="M17.51 9.12543L12.143 0.310572C12.084 0.215268 12.0015 0.136691 11.9035 0.0823265C11.8054 0.0279615 11.6951 -0.000394393 11.583 7.97413e-06H6.64751C6.5351 -0.000545476 6.42443 0.0277192 6.32604 0.0820823C6.22764 0.136445 6.14482 0.215111 6.08546 0.310572L0.719448 9.12543C0.65963 9.22353 0.628482 9.33641 0.629543 9.45131C0.630603 9.56622 0.663826 9.67854 0.725446 9.77552L2.91266 13.226C2.97329 13.3195 3.05656 13.396 3.15473 13.4487C3.2529 13.5013 3.36278 13.5282 3.47415 13.527C3.58552 13.5257 3.69476 13.4963 3.79173 13.4416C3.8887 13.3868 3.97023 13.3083 4.02876 13.2135L8.55219 5.67239C8.61153 5.57644 8.69441 5.49726 8.79295 5.44234C8.89149 5.38742 9.00243 5.35859 9.11524 5.35859C9.22805 5.35859 9.33899 5.38742 9.43754 5.44234C9.53608 5.49726 9.61895 5.57644 9.6783 5.67239L14.2007 13.2125C14.2592 13.3074 14.3406 13.3859 14.4376 13.4408C14.5345 13.4956 14.6437 13.5251 14.7551 13.5265C14.8664 13.5278 14.9763 13.501 15.0746 13.4484C15.1728 13.3959 15.2561 13.3194 15.3168 13.226L17.504 9.77552C17.5658 9.67863 17.5992 9.56637 17.6004 9.45147C17.6017 9.33657 17.5707 9.22363 17.511 9.12543" fill="#0092DF"/>
<path d="M8.57782 9.40181C8.63413 9.31007 8.71302 9.23431 8.80696 9.18174C8.90089 9.12918 9.00673 9.10156 9.11437 9.10156C9.22201 9.10156 9.32786 9.12918 9.4218 9.18174C9.51573 9.23431 9.59462 9.31007 9.65093 9.40181L10.6115 11.0136L11.5711 12.6263C11.6246 12.7188 11.6524 12.824 11.6516 12.9309C11.6509 13.0378 11.6216 13.1425 11.5668 13.2343C11.512 13.3261 11.4336 13.4015 11.3399 13.4529C11.2462 13.5043 11.1404 13.5296 11.0336 13.5264H7.1957C7.08894 13.5295 6.98331 13.5039 6.88971 13.4525C6.79611 13.4011 6.71793 13.3256 6.66324 13.2338C6.60856 13.1421 6.57935 13.0374 6.57863 12.9306C6.57791 12.8238 6.6057 12.7188 6.65915 12.6263L7.61873 11.0136L8.57782 9.40181Z" fill="#0060AF"/>
<path d="M42.2661 6.55863L42.8271 4.71484H40.8034C40.5125 4.71484 40.2292 4.80815 39.9952 4.98106C39.7612 5.15397 39.5888 5.39734 39.5033 5.67547L39.2323 6.55863H42.2661Z" fill="#464749"/>
</g>
<defs>
<clipPath id="clip0_10323_73763">
<rect width="79.0075" height="13.5266" fill="white" transform="translate(0.628052)"/>
</clipPath>
</defs>
</svg>
