<svg width="66" height="16" viewBox="0 0 66 16" fill="none" xmlns="http://www.w3.org/2000/svg">
<path d="M28.2342 7.96036C28.2342 7.96036 29.5572 7.50934 29.5572 6.00595C29.5572 4.24697 28.3094 3.375 26.5955 3.375H22.1003V12.9366H26.9864C28.4898 12.9366 29.9631 11.8842 29.9631 10.2756C29.9631 8.36628 28.2342 7.9754 28.2342 7.96036ZM24.4456 5.35948H26.1896C26.7308 5.35948 27.0916 5.7203 27.0916 6.26152C27.0916 6.68247 26.7609 7.13349 26.1445 7.13349H24.4306V5.35948H24.4456ZM26.2046 10.9371H24.4607V9.05784H26.1595C27.0165 9.05784 27.4224 9.43369 27.4224 9.98995C27.4224 10.6815 26.9112 10.9371 26.2046 10.9371Z" fill="#E20015"/>
<path d="M35.1347 3.13672C32.3684 3.13672 30.7448 5.34671 30.7448 8.14303C30.7448 10.9544 32.3684 13.1493 35.1347 13.1493C37.916 13.1493 39.5246 10.9544 39.5246 8.14303C39.5246 5.34671 37.916 3.13672 35.1347 3.13672ZM35.1347 10.8642C33.7816 10.8642 33.1051 9.64643 33.1051 8.14303C33.1051 6.63964 33.7816 5.43692 35.1347 5.43692C36.4877 5.43692 37.1793 6.65467 37.1793 8.14303C37.1793 9.64643 36.4877 10.8642 35.1347 10.8642Z" fill="#E20015"/>
<path d="M44.6212 7.11954L44.2905 7.04437C43.4786 6.879 42.8322 6.66852 42.8322 6.0822C42.8322 5.45077 43.4486 5.19519 43.9898 5.19519C44.7866 5.19519 45.4932 5.58608 45.9442 6.0822L47.4326 4.60887C46.7561 3.84213 45.6586 3.10547 43.9447 3.10547C41.9301 3.10547 40.4117 4.23302 40.4117 6.11226C40.4117 7.82614 41.6445 8.66804 43.1479 8.98375L43.4786 9.05892C44.7265 9.3145 45.1925 9.50994 45.1925 10.1113C45.1925 10.6826 44.6814 11.0584 43.8996 11.0584C42.9675 11.0584 42.1256 10.6525 41.4791 9.82566L39.9607 11.3291C40.8026 12.3363 41.87 13.1181 43.9297 13.1181C45.7187 13.1181 47.628 12.0958 47.628 10.0061C47.6431 7.82614 45.9893 7.40519 44.6212 7.11954Z" fill="#E20015"/>
<path d="M52.9653 10.8648C51.9129 10.8648 50.8155 9.9928 50.8155 8.08349C50.8155 6.38465 51.8378 5.43751 52.9052 5.43751C53.7471 5.43751 54.2432 5.82839 54.6341 6.50492L56.5584 5.22703C55.5963 3.76874 54.4537 3.15234 52.8751 3.15234C49.9886 3.15234 48.425 5.39241 48.425 8.09852C48.425 10.9399 50.154 13.165 52.845 13.165C54.7393 13.165 55.6414 12.5035 56.6186 11.0903L54.6792 9.78233C54.2883 10.4138 53.8673 10.8648 52.9653 10.8648Z" fill="#E20015"/>
<path d="M62.9779 3.35938V6.87733H60.0763V3.35938H57.5657V12.921H60.0763V9.14746H62.9779V12.921H65.4886V3.35938H62.9779Z" fill="#E20015"/>
<path d="M7.63749 0.902344C3.63845 0.902344 0.391113 4.14968 0.391113 8.14872C0.391113 12.1478 3.63845 15.3951 7.63749 15.3951C11.6365 15.3951 14.8839 12.1478 14.8839 8.14872C14.8839 4.14968 11.6365 0.902344 7.63749 0.902344ZM7.63749 14.7186C4.0143 14.7186 1.06764 11.7719 1.06764 8.14872C1.06764 4.52553 4.0143 1.57887 7.63749 1.57887C11.2607 1.57887 14.2073 4.52553 14.2073 8.14872C14.2073 11.7719 11.2607 14.7186 7.63749 14.7186Z" fill="#575757"/>
<path d="M10.6294 3.625H10.1332V6.10561H5.15699V3.625H4.64583C3.18754 4.60221 2.21033 6.25595 2.21033 8.15023C2.21033 10.0445 3.18754 11.6982 4.64583 12.6755H5.15699V10.1948H10.1332V12.6755H10.6294C12.1027 11.6982 13.0649 10.0445 13.0649 8.15023C13.0649 6.25595 12.1027 4.60221 10.6294 3.625ZM4.46542 11.6982C3.45815 10.8112 2.87182 9.53335 2.87182 8.15023C2.87182 6.7671 3.45815 5.48921 4.46542 4.60221V11.6982ZM10.1332 9.50329H5.15699V6.78214H10.1332C10.1332 6.79717 10.1332 9.50329 10.1332 9.50329ZM10.8098 11.6832V10.1798V6.10561V4.60221C11.802 5.48921 12.3883 6.7671 12.3883 8.13519C12.3883 9.51832 11.802 10.7962 10.8098 11.6832Z" fill="#575757"/>
</svg>
