<svg width="24" height="24" viewBox="0 0 24 24" fill="none" xmlns="http://www.w3.org/2000/svg">
<path fill-rule="evenodd" clip-rule="evenodd" d="M3.495 13.4648L4.69 15.0288L4.948 16.9757C5.091 18.0558 5.94 18.9057 7.02 19.0497L8.972 19.3108L10.535 20.5047C11.4 21.1657 12.599 21.1657 13.464 20.5047L15.028 19.3097H15.026L16.974 19.0518C18.054 18.9088 18.904 18.0597 19.048 16.9797L19.308 15.0278C19.308 15.0288 19.912 14.2378 20.503 13.4648C21.164 12.5998 21.163 11.4007 20.503 10.5357L19.31 8.97075L19.052 7.02375C18.909 5.94375 18.06 5.09375 16.98 4.94975L15.027 4.68975L13.464 3.49575C12.599 2.83475 11.4 2.83475 10.535 3.49575L8.971 4.68975H8.973L7.025 4.94875C5.945 5.09175 5.095 5.94075 4.951 7.02075L4.69 8.97275C4.69 8.97175 4.086 9.76275 3.495 10.5357C2.835 11.3997 2.835 12.5998 3.495 13.4648V13.4648Z" stroke="#323232" stroke-width="1.5" stroke-linecap="round" stroke-linejoin="round"/>
<path d="M14.8032 10.6016L11.3022 14.1026L9.19922 12.0016" stroke="#323232" stroke-width="1.5" stroke-linecap="round" stroke-linejoin="round"/>
</svg>
