<svg width="76" height="14" viewBox="0 0 76 14" fill="none" xmlns="http://www.w3.org/2000/svg">
<path d="M2.69987 0.811602C2.01975 1.12252 1.45114 1.63403 1.07044 2.2774C0.689744 2.92077 0.515192 3.66517 0.570243 4.4106C0.536711 4.93953 0.618048 5.46945 0.808675 5.96402C0.999302 6.45858 1.29471 6.90609 1.67463 7.27584C2.00537 7.63106 2.40632 7.91375 2.85209 8.106C3.29786 8.29825 3.77873 8.39586 4.26422 8.39266C4.84368 8.47851 5.4354 8.419 5.98612 8.21947C6.53685 8.01995 7.02928 7.68669 7.41909 7.24968C7.81297 6.89351 8.12237 6.45399 8.32474 5.96316C8.52712 5.47234 8.61737 4.94257 8.58892 4.41247C8.60796 3.91583 8.52702 3.42043 8.35091 2.95564C8.1748 2.49085 7.9071 2.06614 7.56368 1.70668C7.20784 1.26209 6.74875 0.911057 6.22632 0.684077C5.70388 0.457098 5.13389 0.361036 4.56587 0.40424C3.91667 0.343701 3.26468 0.486036 2.69987 0.811602ZM5.73632 3.42769C5.93757 3.66037 6.06097 3.95013 6.08925 4.25639C6.11752 4.56265 6.04925 4.87008 5.89401 5.13563C5.77947 5.38654 5.59094 5.59647 5.35367 5.7373C5.11641 5.87812 4.84175 5.94312 4.56649 5.92357C4.32368 5.92803 4.08336 5.87399 3.86586 5.76603C3.64835 5.65806 3.46006 5.49934 3.31689 5.30329C3.17372 5.10724 3.07989 4.87961 3.04333 4.63967C3.00677 4.39972 3.02856 4.15451 3.10685 3.92475C3.19094 3.66441 3.34361 3.4315 3.54883 3.25047C3.75406 3.06945 4.00427 2.94698 4.27319 2.89595C4.54211 2.84491 4.81983 2.86718 5.07717 2.96041C5.33451 3.05365 5.56198 3.21441 5.7357 3.42583L5.73632 3.42769Z" fill="black"/>
<path d="M47.8629 0.652213C46.8535 0.957096 45.9477 1.53428 45.2453 2.32028C44.4128 3.18944 43.8472 4.27893 43.6155 5.4596C43.3186 6.64527 43.3306 7.88719 43.6504 9.0669C43.9702 10.2466 44.5871 11.3248 45.4422 12.1985C46.8757 13.5776 48.0599 13.9849 50.3715 13.9065C51.7513 13.8541 51.9882 13.8143 52.7903 13.4468C53.8734 12.8979 54.7965 12.079 55.4702 11.0692C55.8627 10.336 56.142 9.54766 56.2985 8.73096C56.2985 8.58645 56.0094 8.5441 54.8919 8.5441H53.4721L53.2228 9.16137C52.6445 10.5672 51.593 11.2237 49.924 11.2237C49.4812 11.273 49.0329 11.2179 48.6152 11.0628C48.1976 10.9076 47.8221 10.6569 47.5189 10.3305C46.8871 9.72107 46.4953 8.90526 46.4145 8.03146C46.0599 5.98219 46.8508 4.15653 48.4126 3.34181C49.3984 3.02401 50.4579 3.01489 51.4491 3.31564C52.2171 3.66261 52.827 4.28499 53.158 5.05971L53.4734 5.78225H54.8931C56.4967 5.78225 56.4307 5.84765 56.0499 4.6131C55.7616 3.61351 55.202 2.71321 54.4332 2.01196C53.158 0.816657 51.9882 0.39621 49.9246 0.40929C49.2292 0.388946 48.5345 0.470793 47.8629 0.652213Z" fill="black"/>
<path d="M10.9542 7.16763V13.8275L14.2138 13.7751C17.1711 13.7228 17.5394 13.696 18.3148 13.4207C19.6396 13.0023 20.794 12.1677 21.6062 11.0411C22.4185 9.91455 22.8454 8.55607 22.8233 7.16763C22.8392 5.78985 22.4178 4.44247 21.6197 3.31899C20.8215 2.19551 19.6876 1.35374 18.3808 0.914553C17.6709 0.651698 17.2764 0.612456 14.2799 0.560134L10.9542 0.507812V7.16763ZM17.3818 3.37306C17.9223 3.57422 18.4139 3.88788 18.8241 4.29325C19.2342 4.69862 19.5534 5.18645 19.7607 5.72443C20.1028 6.65036 20.0998 7.66848 19.7522 8.59238C19.4046 9.51629 18.7357 10.2842 17.8679 10.7554C17.2633 11.0706 17.0265 11.1098 15.5282 11.1497L13.8455 11.202V3.16127H15.2652C15.9769 3.14168 16.6881 3.21285 17.3818 3.37306Z" fill="black"/>
<path d="M27.6603 0.825992C27.095 2.4025 23.3094 13.5421 23.3094 13.6573C23.3094 13.7626 23.704 13.8018 24.7816 13.7756L26.2387 13.742L26.6987 12.3891L27.1455 11.0493H32.5871L33.0339 12.4284L33.4808 13.8074H34.966C35.4617 13.8231 35.9579 13.8056 36.4512 13.7551C36.4512 13.6897 32.1926 1.1312 32.048 0.763082C31.9688 0.566252 31.7326 0.539468 29.8666 0.539468C27.818 0.536976 27.765 0.536976 27.6603 0.825992ZM30.9068 5.88315L31.8267 8.68112H29.8535C28.3291 8.68112 27.8953 8.64188 27.9476 8.51045L28.9074 5.63337C29.1631 4.73195 29.4929 3.85319 29.8934 3.00607C29.947 3.05901 30.3939 4.35959 30.9068 5.88315Z" fill="black"/>
<path d="M38.4249 7.16882V13.8025H41.1853V0.535156H38.4249V7.16882Z" fill="black"/>
<path d="M58.4037 7.16882V13.8025H61.2956V8.28502H66.9478V13.8025H69.8396V0.535156H66.9478V5.92119H61.2956V0.535156H58.4037V7.16882Z" fill="black"/>
<path d="M72.5994 7.16882V13.8025H75.3597V0.535156H72.5994V7.16882Z" fill="black"/>
</svg>
