<svg width="69" height="15" viewBox="0 0 69 15" fill="none" xmlns="http://www.w3.org/2000/svg">
<g clip-path="url(#clip0_10323_73727)">
<path d="M0.425049 0H15.7054L0.425049 14.1712V0Z" fill="#00A0E4"/>
<path d="M8.06333 0H0.425049V7.08413L8.06333 0Z" fill="black"/>
<path d="M53.5951 3.05469H57.1907L55.2065 11.1449H51.6101L53.5951 3.05469Z" fill="#00A0E4"/>
<path d="M40.8353 11.1409H44.1016L44.6934 8.69518L46.4992 11.1409H50.4933L47.6151 7.03266L52.0911 3.05078H48.3113L45.4496 5.52868L46.0604 3.05078H42.653L40.8353 11.1409Z" fill="#00A0E4"/>
<path d="M35.2742 11.1409L37.2609 3.05078H40.8564L38.8697 11.1409H35.2742Z" fill="#00A0E4"/>
<path d="M56.9185 11.1409H59.4078L60.5639 6.52541L62.0201 11.1409H66.0438L68.0576 3.05078H65.4022L64.2706 7.5099L62.7112 3.05078H58.9217L56.9185 11.1409Z" fill="#00A0E4"/>
<path d="M19.1511 9.25694C19.6462 9.18326 20.1053 8.9545 20.4622 8.60354C20.8192 8.25257 21.0557 7.79744 21.1378 7.30361C21.1378 7.30361 21.369 5.90448 20.8419 5.39173C20.5997 5.18221 20.2879 5.07079 19.9677 5.07935H18.5876L17.5951 9.25694H19.1511ZM13.6914 11.1409L15.7048 3.05078H21.1073C21.1073 3.05078 24.8272 3.34878 24.4387 7.13157C24.4281 7.24148 24.2489 10.5005 20.2827 11.1405L13.6914 11.1409Z" fill="#00A0E4"/>
<path d="M29.9473 7.75179L29.5787 5.68055L28.4471 7.75179H29.9473ZM27.4466 9.60536L26.4744 11.1449H24.106L28.5947 3.05469H32.7L34.1275 11.1449H30.5459L30.2728 9.60536H27.4466Z" fill="#00A0E4"/>
</g>
<defs>
<clipPath id="clip0_10323_73727">
<rect width="67.6328" height="14.1716" fill="white" transform="translate(0.425049)"/>
</clipPath>
</defs>
</svg>
