<svg width="108" height="37" viewBox="0 0 108 37" fill="none" xmlns="http://www.w3.org/2000/svg">
<path d="M36.8836 0.0262454V0H1.74097L36.8836 0.0262454Z" fill="#1A1A1A"/>
<path d="M11.1018 13.6826C10.7558 13.6826 10.4175 13.7852 10.1297 13.9775C9.84199 14.1698 9.61773 14.443 9.4853 14.7627C9.35287 15.0824 9.31822 15.4343 9.38573 15.7737C9.45324 16.1131 9.61989 16.4248 9.86459 16.6695C10.1093 16.9142 10.4211 17.0809 10.7605 17.1484C11.0999 17.2159 11.4517 17.1813 11.7714 17.0488C12.0911 16.9164 12.3644 16.6921 12.5566 16.4044C12.7489 16.1167 12.8515 15.7784 12.8515 15.4323C12.8515 14.9683 12.6672 14.5232 12.339 14.1951C12.0109 13.867 11.5659 13.6826 11.1018 13.6826Z" fill="#1A1A1A"/>
<path d="M26.3854 15.2835C26.0027 14.8854 25.5447 14.5673 25.0381 14.3475C24.4812 14.128 23.8871 14.0181 23.2884 14.0238H20.8126V22.6673H23.2884C23.89 22.6773 24.4867 22.558 25.0381 22.3173C25.5452 22.1266 26.0049 21.8281 26.3854 21.4425C26.7623 21.0382 27.0591 20.5662 27.2603 20.0515C27.4721 19.5175 27.5733 18.946 27.5577 18.3718C27.5736 17.7731 27.4664 17.1776 27.2428 16.6221C27.0427 16.1264 26.752 15.6725 26.3854 15.2835Z" fill="#1A1A1A"/>
<path d="M36.8836 0H3.74435H0V36.4812H34.8889L108 36.5424V0.0874848L36.8836 0ZM17.9869 11.373H23.2885C25.1698 11.3558 26.9827 12.0785 28.3363 13.3852C28.9769 14.0134 29.4907 14.7588 29.8498 15.581C30.2136 16.4389 30.4011 17.3612 30.4011 18.2931C30.4011 19.2249 30.2136 20.1472 29.8498 21.0051C29.4907 21.8273 28.9769 22.5728 28.3363 23.201C27.6849 23.8327 26.9148 24.3293 26.0705 24.662C25.19 25.0322 24.2436 25.2197 23.2885 25.2131H17.9869V11.373ZM10.4282 11.1981C11.3101 11.0559 12.2144 11.197 13.0112 11.6009C13.808 12.0048 14.4562 12.6509 14.8629 13.4463C15.2695 14.2417 15.4136 15.1455 15.2744 16.0279C15.1353 16.9104 14.72 17.726 14.0884 18.3576C13.4567 18.9893 12.6411 19.4045 11.7587 19.5437C10.8763 19.6828 9.97246 19.5387 9.17706 19.1321C8.38165 18.7255 7.73559 18.0772 7.33164 17.2805C6.9277 16.4837 6.78667 15.5794 6.9288 14.6974C7.08016 13.8299 7.4988 13.0313 8.12621 12.4133C8.75362 11.7953 9.55844 11.3888 10.4282 11.2505V11.1981ZM106.382 34.9239H36.8836V1.7497H106.382V34.9239Z" fill="#1A1A1A"/>
<path d="M48.939 16.3247V15.1086H49.7176C49.8877 15.1337 50.0614 15.108 50.217 15.0349C50.3726 14.9617 50.5032 14.8444 50.5924 14.6975L50.7062 14.5225L47.8892 8.58228H49.5251L51.441 12.9565L53.1907 8.58228H54.8355L52.1322 14.7062C51.994 15.193 51.6945 15.6183 51.2828 15.9124C50.871 16.2065 50.3716 16.3519 49.8663 16.3247H48.939Z" fill="#1A1A1A"/>
<path d="M58.3699 16.1846V14.0763C57.8731 14.2089 57.3618 14.2794 56.8477 14.2862C55.6316 14.2862 54.9405 13.7351 54.9405 12.484V10.5419H56.3927V12.2478C56.3927 12.8515 56.6639 13.1227 57.4251 13.1227C57.7444 13.1212 58.0622 13.0771 58.3699 12.9914V10.5419H59.8134V16.1846H58.3699Z" fill="#1A1A1A"/>
<path d="M62.4117 13.7613C62.4093 13.9523 62.4453 14.1418 62.5176 14.3185C62.5898 14.4953 62.6968 14.6558 62.8323 14.7904C62.9677 14.9251 63.1289 15.0311 63.3061 15.1023C63.4833 15.1735 63.673 15.2083 63.8639 15.2048C64.1025 15.2168 64.3395 15.1617 64.5483 15.0457C64.7571 14.9297 64.9291 14.7575 65.045 14.5487H66.4885C66.2892 15.0783 65.9287 15.5321 65.4579 15.846C64.987 16.1599 64.4295 16.3181 63.8639 16.2984C63.4741 16.3089 63.0864 16.238 62.7254 16.0904C62.3645 15.9428 62.0382 15.7216 61.7674 15.441C61.4967 15.1603 61.2873 14.8264 61.1527 14.4604C61.0181 14.0944 60.9612 13.7043 60.9857 13.3151C60.9664 12.9337 61.0258 12.5524 61.1603 12.195C61.2948 11.8376 61.5014 11.5116 61.7673 11.2375C62.0332 10.9634 62.3527 10.747 62.7059 10.6017C63.0591 10.4564 63.4384 10.3854 63.8202 10.3931C65.5699 10.3931 66.646 11.7404 66.5935 13.7351L62.4117 13.7613ZM62.4117 12.764H65.0887C65.0965 12.5908 65.0676 12.4179 65.004 12.2566C64.9405 12.0953 64.8436 11.9492 64.7198 11.8279C64.596 11.7065 64.448 11.6127 64.2854 11.5524C64.1229 11.4921 63.9495 11.4667 63.7765 11.478C63.4301 11.4797 63.0976 11.6139 62.8471 11.8531C62.5966 12.0922 62.4471 12.4181 62.4292 12.764H62.4117Z" fill="#1A1A1A"/>
<path d="M67.5295 12.9827V12.589C67.5295 10.5419 68.1594 9.08965 70.469 8.83594L72.6124 8.54724V9.71079L70.539 10.017C70.0517 10.0193 69.5848 10.2133 69.2393 10.5571C68.8939 10.9009 68.6977 11.3668 68.6931 11.8542C68.9009 11.5395 69.1865 11.284 69.5222 11.1123C69.8579 10.9406 70.2323 10.8587 70.609 10.8743C70.9548 10.8668 71.2982 10.9323 71.6169 11.0666C71.9356 11.2008 72.2224 11.4008 72.4586 11.6535C72.6947 11.9061 72.8749 12.2058 72.9873 12.5328C73.0998 12.8598 73.1419 13.2069 73.1111 13.5514C73.1327 13.9212 73.0758 14.2914 72.9441 14.6377C72.8123 14.984 72.6088 15.2984 72.3468 15.5604C72.0849 15.8224 71.7704 16.0259 71.4241 16.1576C71.0779 16.2893 70.7077 16.3463 70.3378 16.3246C68.7893 16.3246 67.5295 15.2398 67.5295 12.9827ZM71.6151 13.5514C71.6151 12.4491 71.0289 11.9242 70.3203 11.9242C69.6117 11.9242 68.9818 12.4403 68.9818 13.5514C68.9818 14.6624 69.5592 15.1873 70.3116 15.1873C71.0639 15.1873 71.6151 14.6449 71.6151 13.5514Z" fill="#1A1A1A"/>
<path d="M74.2308 16.1846V10.5419H75.6743V12.729H78.0277V10.5419H79.4799V16.1846H78.0277V13.8663H75.6743V16.1846H74.2308Z" fill="#1A1A1A"/>
<path d="M81.0721 16.1846V10.5419H82.5244V12.3791H83.3992C85.0002 12.3791 85.6826 12.9827 85.6826 14.26C85.6826 15.7035 84.9302 16.1846 83.443 16.1846H81.0721ZM82.5244 15.0561H83.2855C83.9591 15.0561 84.2916 14.8636 84.2916 14.2337C84.2916 13.6038 83.9591 13.5076 83.2768 13.5076H82.5244V15.0561ZM86.5137 16.1846V10.5419H87.966V16.1846H86.5137Z" fill="#1A1A1A"/>
<path d="M89.567 16.1847V10.5419H90.9842V14.3913L93.4688 10.5419H94.921V16.1847H93.5038V12.4753L90.9842 16.1847H89.567ZM90.5293 8.58228H91.5529C91.5529 8.91472 91.8153 9.12468 92.3052 9.12468C92.7952 9.12468 93.0314 8.91472 93.0751 8.58228H94.0899C94.0024 9.3259 93.5038 9.8858 92.3402 9.8858C91.1767 9.8858 90.5818 9.3259 90.5293 8.58228Z" fill="#1A1A1A"/>
<path d="M54.4593 28.2314V26.6829H48.6503V19.0804H50.1463V25.4668H53.2608V19.0804H54.7655V25.4668H55.7716V28.2314H54.4593Z" fill="#1A1A1A"/>
<path d="M57.8974 24.2596C57.8951 24.4483 57.9303 24.6356 58.0009 24.8107C58.0716 24.9857 58.1762 25.145 58.3089 25.2793C58.4415 25.4135 58.5995 25.5201 58.7737 25.5929C58.9478 25.6657 59.1347 25.7031 59.3234 25.7031C59.562 25.7151 59.7991 25.66 60.0078 25.544C60.2166 25.428 60.3887 25.2558 60.5045 25.047H62.0005C61.7989 25.584 61.4317 26.0429 60.952 26.3575C60.4724 26.672 59.9051 26.8258 59.3322 26.7967C58.9424 26.8071 58.5546 26.7363 58.1937 26.5887C57.8327 26.4411 57.5065 26.2199 57.2357 25.9393C56.9649 25.6586 56.7556 25.3247 56.621 24.9587C56.4864 24.5927 56.4295 24.2026 56.4539 23.8134C56.4347 23.432 56.4941 23.0507 56.6286 22.6933C56.763 22.3359 56.9697 22.0099 57.2356 21.7358C57.5015 21.4617 57.821 21.2453 58.1741 21.1C58.5273 20.9547 58.9066 20.8837 59.2885 20.8914C61.0381 20.8914 62.1142 22.2387 62.0617 24.2334L57.8974 24.2596ZM57.8974 23.2623H60.5745C60.5822 23.0891 60.5534 22.9162 60.4898 22.7549C60.4262 22.5936 60.3294 22.4475 60.2056 22.3262C60.0817 22.2048 59.9337 22.111 59.7712 22.0507C59.6086 21.9904 59.4352 21.965 59.2622 21.9762C58.9159 21.978 58.5834 22.1122 58.3329 22.3514C58.0823 22.5905 57.9328 22.9164 57.9149 23.2623H57.8974Z" fill="#1A1A1A"/>
<path d="M63.2166 26.6828V21.04H64.6688V23.2272H67.0134V21.04H68.4656V26.6828H67.0134V24.3645H64.6688V26.6828H63.2166Z" fill="#1A1A1A"/>
<path d="M71.3351 26.6828V22.1861H69.4979V21.04H74.6158V22.1861H72.7786V26.6828H71.3351Z" fill="#1A1A1A"/>
<path d="M75.6481 28.5201V21.0401H77.0916V21.7663C77.2601 21.4885 77.4998 21.2608 77.786 21.107C78.0721 20.9531 78.3942 20.8787 78.7188 20.8914C80.0836 20.8914 81.1772 22.0637 81.1772 23.8396C81.1772 25.6156 80.0574 26.8229 78.7363 26.8229C78.413 26.8349 78.0924 26.7601 77.8077 26.6063C77.5231 26.4524 77.2849 26.2251 77.1179 25.948V28.5201H75.6481ZM79.6549 23.8746C79.6549 22.7723 79.1213 22.0287 78.3689 22.0287C77.6165 22.0287 77.0391 22.7286 77.0391 23.8659C77.0391 25.0032 77.564 25.7118 78.3689 25.7118C79.1738 25.7118 79.6549 24.977 79.6549 23.8746Z" fill="#1A1A1A"/>
</svg>
