<svg width="72" height="11" viewBox="0 0 72 11" fill="none" xmlns="http://www.w3.org/2000/svg">
<g clip-path="url(#clip0_10323_73665)">
<path d="M14.9878 1.35156H17.0319V4.49128H17.054L19.3624 1.35156H21.8245L18.988 4.93188L22.0443 9.04115H19.4374L17.0526 5.54866H17.0306V9.04115H14.9865L14.9878 1.35156Z" fill="black"/>
<path d="M22.9779 1.35156H28.3845V2.80494H25.0207V4.39262H28.1979V5.8469H25.0207V7.58728H28.5049V9.04159H22.9766L22.9779 1.35156Z" fill="black"/>
<path d="M29.8918 1.35156H32.4987L35.093 6.57406H35.1141L35.0813 1.35156H36.9501V9.04115H34.4112L31.7288 3.78621H31.7068L31.7728 9.04115H29.8932L29.8918 1.35156Z" fill="black"/>
<path d="M39.8387 2.87209H37.9479V1.35156H43.7738V2.87209H41.8829V9.04159H39.8387V2.87209Z" fill="black"/>
<path d="M47.4671 2.93831H47.446L46.4572 5.9456H48.3777L47.4671 2.93831ZM46.2145 1.35156H48.7197L51.6767 9.04115H49.4353L48.8631 7.39988H45.9825L45.3785 9.04115H43.3015L46.2145 1.35156Z" fill="black"/>
<path d="M53.1626 2.87209H51.2717V1.35156H57.0976V2.87209H55.2067V9.04159H53.1626V2.87209Z" fill="black"/>
<path d="M58.0873 7.15107C58.7388 7.4902 59.4634 7.66408 60.1975 7.65747C60.8465 7.65747 61.4623 7.52501 61.4623 6.90823C61.4623 5.47601 57.8342 6.37888 57.8342 3.58156C57.8342 1.73034 59.637 1.22303 61.176 1.22303C61.8459 1.21587 62.513 1.31254 63.1536 1.50958L63.0214 3.09633C62.4851 2.85859 61.9044 2.73832 61.318 2.74355C60.8007 2.74355 59.9444 2.78862 59.9444 3.4599C59.9444 4.70516 63.5716 3.86539 63.5716 6.64379C63.5716 8.63827 61.9005 9.178 60.1966 9.178C59.4226 9.17843 58.6526 9.0672 57.9102 8.84775L58.0873 7.15107Z" fill="black"/>
<path d="M71.5072 6.12219C71.5072 8.2266 70.1445 9.17449 68.1444 9.17449C66.1443 9.17449 64.7806 8.2284 64.7806 6.12219V1.35156H66.8248V5.78069C66.8248 6.79438 67.0994 7.65396 68.1444 7.65396C69.1894 7.65396 69.4631 6.79438 69.4631 5.78069V1.35156H71.5072V6.12219Z" fill="black"/>
<path d="M7.07147 0H4.28662V2.79327H7.07147V0Z" fill="#E50019"/>
<path d="M7.07147 7.58984H4.28662V10.384H7.07147V7.58984Z" fill="#E50019"/>
<path d="M2.89968 5.18528L0.492798 6.58984L1.89335 9.00128L4.30023 7.59672L2.89968 5.18528Z" fill="#E50019"/>
<path d="M1.90907 1.36497L0.498535 3.77344L2.90091 5.1871L4.31145 2.77863L1.90907 1.36497Z" fill="#E50019"/>
<path d="M8.46649 5.18477L7.06616 7.59766L9.47449 9.00199L10.8748 6.58911L8.46649 5.18477Z" fill="#E50019"/>
<path d="M9.45828 1.36774L7.0553 2.78125L8.46546 5.18994L10.8684 3.77643L9.45828 1.36774Z" fill="#E50019"/>
</g>
<defs>
<clipPath id="clip0_10323_73665">
<rect width="71.0145" height="10.3842" fill="white" transform="translate(0.492798)"/>
</clipPath>
</defs>
</svg>
