<svg width="57" height="24" viewBox="0 0 57 24" fill="none" xmlns="http://www.w3.org/2000/svg">
<g clip-path="url(#clip0_10323_73747)">
<path d="M36.5606 17.6276C36.3476 17.8006 36.1092 17.9391 35.8541 18.0383C35.5114 18.1712 35.1465 18.236 34.7795 18.2293C34.4893 18.2416 34.1999 18.1895 33.9318 18.0767C33.6637 17.9639 33.4232 17.7931 33.2274 17.5764C32.8152 17.0223 32.6151 16.3363 32.6642 15.6448C32.6642 14.8102 32.844 14.1863 33.1962 13.7946C33.4099 13.5822 33.6659 13.4182 33.9472 13.3137C34.2286 13.2092 34.5287 13.1666 34.8277 13.1886C35.1914 13.1849 35.553 13.2455 35.896 13.3678C36.1385 13.4446 36.3633 13.5698 36.5571 13.7358C36.6287 13.8097 36.6687 13.9091 36.6685 14.0125V17.3488C36.6691 17.4517 36.631 17.5509 36.5621 17.6265L36.5606 17.6276ZM38.4436 8.6052H36.833C36.6713 8.6052 36.6688 8.79441 36.6688 8.79441V12.1343L36.4386 12.0118C36.1945 11.8808 35.9323 11.7875 35.6608 11.7351C35.3438 11.6788 35.0223 11.6523 34.7004 11.6559C33.5767 11.6043 32.4783 12.0028 31.6438 12.7647C30.8951 13.4889 30.5024 14.5565 30.5088 15.853C30.4771 16.8989 30.8154 17.9219 31.4629 18.7385C32.0882 19.4911 33.0213 19.8731 34.2347 19.8731C35.9765 19.8731 36.666 18.8113 36.666 18.8113L36.6706 19.8409H38.616V17.9143C38.616 15.766 38.616 8.80159 38.616 8.80159C38.616 8.80159 38.6241 8.60592 38.4454 8.60592L38.4436 8.6052ZM28.7837 8.60592H27.2075C27.1787 8.60422 27.1499 8.60934 27.1233 8.62086C27.0968 8.63237 27.0733 8.64999 27.0547 8.67228C27.0361 8.69457 27.0228 8.72094 27.0161 8.74929C27.0093 8.77765 27.0091 8.8072 27.0156 8.83562C27.0156 9.08647 27.0156 10.2949 27.0156 10.5457H28.9593V8.80983C28.9634 8.78393 28.9617 8.75742 28.9543 8.73225C28.947 8.70708 28.9342 8.68388 28.9169 8.66434C28.8995 8.6448 28.8781 8.62943 28.8542 8.61932C28.8302 8.60922 28.8043 8.60463 28.7784 8.60592H28.7837ZM54.5448 17.9501C54.5512 18.005 54.5409 18.0605 54.515 18.1091C54.4892 18.1578 54.4492 18.1972 54.4004 18.2221C53.8145 18.4888 53.1709 18.5999 52.5306 18.5447C52.241 18.5412 51.9602 18.4442 51.7292 18.2677C51.4982 18.0913 51.3292 17.8447 51.247 17.5642C51.225 17.461 51.0342 16.2691 52.1727 15.8946C52.8936 15.715 53.6491 15.7345 54.36 15.9509C54.5068 15.9914 54.5444 16.0774 54.5444 16.2533L54.5448 17.9501ZM53.1023 11.6315C50.8189 11.6315 50.0149 13.0291 49.7609 13.7014L49.6723 13.944L50.432 14.206C50.432 14.206 50.9232 12.7873 52.8587 12.8686C54.8151 12.9489 54.5859 14.5669 54.5703 14.8253C53.3748 14.482 52.1013 14.5402 50.9413 14.9912C49.6797 15.5742 49.485 16.7471 49.5244 17.6072C49.5829 18.879 50.6948 19.7738 52.1408 19.8552C53.4389 19.929 54.0234 19.642 54.5601 19.0987L54.5455 19.8394H56.2589V14.249C56.2944 13.285 55.6205 11.633 53.1023 11.633V11.6315ZM42.2365 14.9518C42.1461 14.9489 42.1379 14.8597 42.1397 14.8152C42.2052 14.3738 42.4067 13.9645 42.7157 13.6455C42.9178 13.4481 43.1566 13.2932 43.4184 13.1898C43.6802 13.0864 43.9598 13.0366 44.2408 13.0431C44.7343 13.0285 45.2156 13.1998 45.591 13.5237C45.9317 13.8408 46.1621 14.2604 46.2482 14.7203C46.2663 14.7783 46.2986 14.9453 46.1635 14.9453L42.2365 14.9518ZM47.0732 12.8761C46.7248 12.4735 46.2913 12.155 45.8049 11.9441C45.3184 11.7333 44.7913 11.6354 44.2624 11.6577C43.7182 11.642 43.1762 11.7353 42.6677 11.9321C42.1593 12.1289 41.6944 12.4254 41.2998 12.8045C40.9089 13.1933 40.6028 13.6605 40.4012 14.1761C40.1996 14.6916 40.107 15.244 40.1294 15.7978C40.1053 16.3423 40.195 16.8858 40.3925 17.393C40.5901 17.9001 40.8911 18.3596 41.2761 18.7414C42.0429 19.4703 43.1321 19.8391 44.5096 19.8391C47.1782 19.8391 47.7577 17.9813 47.9769 17.3664L47.2867 17.1413C46.6724 18.2752 45.2927 18.3433 44.4876 18.2906C43.9438 18.2593 43.42 18.0729 42.9767 17.7531C42.7513 17.5826 42.5616 17.3687 42.4187 17.1236C42.2758 16.8785 42.1826 16.6072 42.1443 16.3253L42.1067 16.0745H48.111C48.089 14.7314 47.745 13.6531 47.0729 12.8754L47.0732 12.8761ZM1.74398 13.2521C1.74398 7.40757 6.62289 2.65322 12.619 2.65322C14.4293 2.65051 16.2123 3.09866 17.8104 3.95805C19.4084 4.81743 20.7722 6.06153 21.781 7.58029C20.3084 3.41938 16.2314 0.558594 11.6426 0.558594C5.73124 0.558594 0.922906 5.21728 0.922906 10.9442C0.930202 12.5115 1.30132 14.0553 2.00644 15.4513C1.84031 14.7301 1.75219 13.9928 1.74362 13.2524L1.74398 13.2521ZM23.6058 8.59373H21.6483C21.6221 8.59104 21.5956 8.59451 21.5709 8.60386C21.5462 8.61322 21.524 8.62822 21.506 8.64767C21.4879 8.66713 21.4746 8.69053 21.467 8.71605C21.4594 8.74156 21.4577 8.76851 21.4621 8.79479C21.5322 9.30789 21.5625 9.82573 21.5526 10.3436C21.5526 12.2787 21.3217 15.0611 19.2192 17.7018L19.0702 17.8882C19.0702 17.8882 17.8093 8.97753 17.7831 8.80122C17.7831 8.80122 17.7756 8.59373 17.6058 8.59373H15.6345C15.4483 8.59373 15.46 8.79299 15.46 8.79299C15.4142 9.82328 14.8457 18.4028 8.65021 19.7882C10.1717 19.8883 11.6844 19.4879 12.962 18.6472C13.7773 18.1609 14.4862 17.5121 15.0455 16.7403C15.6049 15.9685 16.0031 15.0898 16.2158 14.1576C16.2158 14.1576 16.9727 18.9414 17.072 20.0408L17.0784 20.1125L17.0173 20.1448C15.5411 20.9393 13.9178 21.4158 12.25 21.5442C10.5822 21.6726 8.90619 21.4501 7.32785 20.8907C5.74951 20.3313 4.30316 19.4472 3.08021 18.2943C1.85726 17.1413 0.884285 15.7446 0.222778 14.1924C0.779906 16.7642 2.19065 19.0661 4.2209 20.7163C6.25114 22.3664 8.77881 23.2655 11.3844 23.2643C17.7019 23.2643 21.4572 17.9215 22.1059 14.1261C22.1059 14.1261 22.9571 19.6599 22.9787 19.8405H25.5632C25.5249 19.6026 23.8133 8.96786 23.7849 8.79441C23.7849 8.79441 23.7757 8.59411 23.6076 8.59411L23.6058 8.59373ZM27.0192 11.6943V19.8401L28.9245 19.8373V11.6939L27.0192 11.6943Z" fill="#00A1ED"/>
</g>
<defs>
<clipPath id="clip0_10323_73747">
<rect width="56.0386" height="22.7053" fill="white" transform="translate(0.222168 0.558594)"/>
</clipPath>
</defs>
</svg>
