<svg width="28" height="28" viewBox="0 0 28 28" fill="none" xmlns="http://www.w3.org/2000/svg">
<path d="M10.791 14.5306V17.5608C10.791 18.2236 11.1655 18.8296 11.7584 19.126L12.4341 19.4639C13.4195 19.9565 14.5792 19.9565 15.5646 19.4639L16.2403 19.126C16.8332 18.8296 17.2077 18.2236 17.2077 17.5608V14.5306" stroke="currentColor" stroke-width="1.5" stroke-linecap="round" stroke-linejoin="round" fill="none"/>
<rect x="3.5" y="3.5" width="21" height="21" rx="5" stroke="currentColor" stroke-width="1.5" stroke-linecap="round" stroke-linejoin="round" fill="none"/>
<path fill-rule="evenodd" clip-rule="evenodd" d="M8.82929 13.5942L12.741 15.4647C13.5367 15.8452 14.4618 15.8452 15.2575 15.4647L19.1693 13.5942C19.5746 13.4003 19.8326 12.991 19.8326 12.5417C19.8326 12.0924 19.5746 11.6831 19.1693 11.4892L15.2575 9.61873C14.4618 9.23826 13.5367 9.23826 12.741 9.61873L8.82929 11.4892C8.42399 11.6831 8.16602 12.0924 8.16602 12.5417C8.16602 12.991 8.42399 13.4003 8.82929 13.5942Z" stroke="currentColor" stroke-width="1.5" stroke-linecap="round" stroke-linejoin="round" fill="none"/>
<path d="M19.8333 12.5341V15.1667" stroke="currentColor" stroke-width="1.5" stroke-linecap="round" stroke-linejoin="round"/>
</svg>
