<svg width="80" height="14" fill="none" xmlns="http://www.w3.org/2000/svg"><g clip-path="url(#clip0_10323_73763)"><path d="M65.32 11.955l.996-3.27c.084-.254.129-.519.134-.786a.93.93 0 00-1.05-1.05 2.8 2.8 0 00-2.02.913l-2.414 2.23.542-1.69c.057-.18.087-.37.09-.559 0-.596-.327-.894-.983-.894a3.012 3.012 0 00-2.153.934l-2.5 2.21.942-3.144H47.92a4.521 4.521 0 00-2.936.894 3.542 3.542 0 00-1.25 2.328 3.453 3.453 0 00-.042.53 2.45 2.45 0 00.963 2.014c.86.671 1.94.997 3.03.913a4.163 4.163 0 002.753-.903 3.174 3.174 0 001.206-2.417 2.74 2.74 0 00-.141-.996 1.575 1.575 0 00-.45-.79h2.376l-1.525 5.107h1.7a1.448 1.448 0 001.06-.422l3.32-2.913-.645 1.626c-.079.228-.12.466-.125.707 0 .667.378 1 1.135 1 .506 0 1.115-.346 1.827-1.04l2.8-2.5c-.245.924-.43 1.483-.55 1.967-.022.1-.033.202-.033.305a1.3 1.3 0 00.338.879.974.974 0 00.737.387h3.387a1.7 1.7 0 001.895-1.57h-3.43zm-17.187 0a3.15 3.15 0 01-.275.01c-.89 0-1.336-.281-1.335-.844 0-.126.02-.252.058-.373l.685-2.328h1.91l-1.043 3.535z" fill="#464749"/><path d="M43.927 11.954a1.978 1.978 0 01-1.968 1.572h-3.296a1.05 1.05 0 01-1.194-1.179c.004-.243.043-.485.117-.717l1.5-4.677h3.029l-1.592 5 3.404.001zM37.828 6.85h-2.72l-1.45 1.265-.717-1.265h-3.479l1.894 3.28-2.08 1.826h-2.443L28.4 6.85h-4.764a4.337 4.337 0 00-2.995 1.08 4.121 4.121 0 00-1.335 3.24 2.256 2.256 0 00.65 1.65 1.995 1.995 0 001.585.708 2.45 2.45 0 002.196-1.021c0 .68.45 1.02 1.35 1.02h4.967l2.185-1.866 1.077 1.867h3.387l-2.17-3.84 3.294-2.838zm-13.96 5.106a3.14 3.14 0 01-.274.01c-.891 0-1.336-.281-1.336-.844.002-.126.021-.252.059-.373L23 8.421h1.91l-1.042 3.535zm52.305 0l1.57-5.106h-4.765a4.337 4.337 0 00-2.995 1.08 4.119 4.119 0 00-1.335 3.24 2.239 2.239 0 00.623 1.65 1.993 1.993 0 001.585.708 2.494 2.494 0 002.222-1.021c0 .68.45 1.02 1.35 1.02h3.162a1.91 1.91 0 002.044-1.57h-3.461zm-2.961 0c-.079.007-.17.01-.275.01-.891 0-1.335-.28-1.335-.844a1.28 1.28 0 01.058-.373l.685-2.328h1.91l-1.043 3.535z" fill="#464749"/><path d="M17.51 9.125L12.143.311a.656.656 0 00-.56-.311H6.648a.658.658 0 00-.563.31L.72 9.126a.615.615 0 00.006.65l2.188 3.451a.66.66 0 001.116-.013l4.523-7.54a.662.662 0 011.126 0l4.523 7.54a.66.66 0 001.116.013l2.187-3.45a.615.615 0 00.007-.65" fill="#0092DF"/><path d="M8.578 9.402a.63.63 0 011.073 0l.96 1.612.96 1.612a.6.6 0 01-.537.9H7.196a.6.6 0 01-.537-.9l.96-1.612.959-1.612z" fill="#0060AF"/><path d="M42.266 6.559l.561-1.844h-2.024a1.36 1.36 0 00-1.3.96l-.27.884h3.033z" fill="#464749"/></g><defs><clipPath id="clip0_10323_73763"><path fill="#fff" transform="translate(.628)" d="M0 0h79.007v13.527H0z"/></clipPath></defs></svg>