<svg width="66" height="16" fill="none" xmlns="http://www.w3.org/2000/svg"><path d="M28.234 7.96s1.323-.45 1.323-1.954c0-1.759-1.248-2.631-2.961-2.631H22.1v9.562h4.886c1.504 0 2.977-1.053 2.977-2.661 0-1.91-1.729-2.3-1.729-2.316zm-3.788-2.6h1.744c.54 0 .902.36.902.902 0 .42-.331.871-.947.871H24.43V5.36h.015zm1.759 5.577H24.46v-1.88h1.699c.857 0 1.262.377 1.262.933 0 .691-.51.947-1.217.947zm8.93-7.8c-2.767 0-4.39 2.21-4.39 5.006 0 2.811 1.623 5.006 4.39 5.006 2.781 0 4.39-2.195 4.39-5.006 0-2.796-1.609-5.006-4.39-5.006zm0 7.727c-1.353 0-2.03-1.218-2.03-2.721 0-1.503.677-2.706 2.03-2.706 1.353 0 2.044 1.218 2.044 2.706 0 1.503-.691 2.721-2.044 2.721zm9.486-3.744l-.33-.076c-.812-.165-1.459-.375-1.459-.962 0-.631.617-.887 1.158-.887.797 0 1.503.391 1.954.887l1.489-1.473c-.677-.767-1.774-1.504-3.488-1.504-2.015 0-3.533 1.128-3.533 3.007 0 1.714 1.233 2.556 2.736 2.872l.33.075c1.248.256 1.715.45 1.715 1.052 0 .572-.512.947-1.293.947-.932 0-1.774-.405-2.42-1.232l-1.52 1.503c.843 1.007 1.91 1.79 3.97 1.79 1.789 0 3.698-1.023 3.698-3.113.015-2.18-1.639-2.6-3.007-2.886zm8.344 3.745c-1.052 0-2.15-.872-2.15-2.782 0-1.698 1.023-2.645 2.09-2.645.842 0 1.338.39 1.73 1.067l1.923-1.278c-.962-1.458-2.104-2.075-3.683-2.075-2.886 0-4.45 2.24-4.45 4.947 0 2.84 1.729 5.066 4.42 5.066 1.894 0 2.796-.661 3.774-2.075l-1.94-1.308c-.39.632-.812 1.083-1.714 1.083zM62.978 3.36v3.517h-2.902V3.36h-2.51v9.562h2.51V9.147h2.902v3.774h2.51V3.359h-2.51z" fill="#E20015"/><path d="M7.637.902A7.25 7.25 0 00.391 8.15a7.25 7.25 0 007.246 7.246 7.25 7.25 0 007.247-7.246A7.25 7.25 0 007.637.902zm0 13.817a6.577 6.577 0 01-6.57-6.57 6.577 6.577 0 016.57-6.57 6.577 6.577 0 016.57 6.57 6.577 6.577 0 01-6.57 6.57z" fill="#575757"/><path d="M10.63 3.625h-.497v2.48H5.157v-2.48h-.511C3.188 4.602 2.21 6.256 2.21 8.15c0 1.894.978 3.548 2.436 4.525h.511v-2.48h4.976v2.48h.496a5.407 5.407 0 002.436-4.525 5.406 5.406 0 00-2.436-4.525zm-6.165 8.073A4.704 4.704 0 012.872 8.15c0-1.383.586-2.66 1.593-3.548v7.096zm5.668-2.195H5.157v-2.72h4.976v2.72zm.677 2.18V4.602a4.735 4.735 0 011.578 3.533 4.743 4.743 0 01-1.578 3.548z" fill="#575757"/></svg>