<svg width="36" height="36" fill="none" xmlns="http://www.w3.org/2000/svg"><path d="M22 8v4m-8-4v4m-5 3h18" stroke="#323232" stroke-width="1.5" stroke-linecap="round" stroke-linejoin="round"/><path clip-rule="evenodd" d="M25 10H11a2 2 0 00-2 2v13a2 2 0 002 2h14a2 2 0 002-2V12a2 2 0 00-2-2z" stroke="#323232" stroke-width="1.5" stroke-linecap="round" stroke-linejoin="round"/><path d="M18.013 18.729a.25.25 0 10.002.5.25.25 0 00-.002-.5m5 0a.25.25 0 10.002.5.25.25 0 00-.002-.5m-10 4a.25.25 0 10.002.5.25.25 0 00-.002-.5m5 0a.25.25 0 10.002.5.25.25 0 00-.002-.5" stroke="#323232" stroke-width="1.5" stroke-linecap="round" stroke-linejoin="round"/></svg>