<svg width="24" height="24" fill="none" xmlns="http://www.w3.org/2000/svg"><path clip-rule="evenodd" d="M3.495 13.465l1.195 1.564.258 1.947A2.411 2.411 0 007.02 19.05l1.952.26 1.563 1.195a2.411 2.411 0 002.929 0l1.564-1.195h-.002l1.948-.258a2.412 2.412 0 002.074-2.072l.26-1.952 1.195-1.563a2.413 2.413 0 000-2.93L19.31 8.972l-.258-1.947A2.411 2.411 0 0016.98 4.95l-1.953-.26-1.563-1.194a2.411 2.411 0 00-2.929 0L8.971 4.69h.002l-1.948.259A2.411 2.411 0 004.951 7.02L4.69 8.973l-1.195 1.563a2.414 2.414 0 000 2.929v0z" stroke="#323232" stroke-width="1.5" stroke-linecap="round" stroke-linejoin="round"/><path d="M14.803 10.602l-3.5 3.5-2.104-2.1" stroke="#323232" stroke-width="1.5" stroke-linecap="round" stroke-linejoin="round"/></svg>