<svg width="76" height="14" fill="none" xmlns="http://www.w3.org/2000/svg"><path d="M2.7.812A3.663 3.663 0 00.57 4.41a3.673 3.673 0 001.105 2.865 3.506 3.506 0 002.59 1.117A3.534 3.534 0 007.418 7.25a3.568 3.568 0 001.17-2.838 3.71 3.71 0 00-1.025-2.705A3.499 3.499 0 004.566.404 3.15 3.15 0 002.7.812zm3.036 2.616a1.474 1.474 0 01.158 1.708 1.353 1.353 0 01-1.328.788 1.513 1.513 0 01-1.46-2 1.524 1.524 0 012.63-.498v.002zM47.863.652a5.734 5.734 0 00-2.618 1.668 6.29 6.29 0 00-1.63 3.14 7.15 7.15 0 001.827 6.738c1.434 1.38 2.618 1.787 4.93 1.708 1.38-.052 1.616-.092 2.418-.46a7.056 7.056 0 002.68-2.377 8.24 8.24 0 00.828-2.338c0-.145-.289-.187-1.406-.187h-1.42l-.25.617c-.578 1.406-1.629 2.063-3.298 2.063a2.853 2.853 0 01-2.405-.893 3.663 3.663 0 01-1.105-2.3c-.354-2.049.437-3.874 1.999-4.69a5.085 5.085 0 013.036-.025 3.364 3.364 0 011.709 1.744l.315.722h1.42c1.604 0 1.538.066 1.157-1.169-.288-1-.848-1.9-1.617-2.601C53.158.817 51.988.396 49.925.409a7.109 7.109 0 00-2.062.243zM10.954 7.168v6.66l3.26-.053c2.957-.052 3.325-.079 4.1-.354a6.453 6.453 0 004.51-6.253A6.516 6.516 0 0018.38.915c-.71-.263-1.104-.303-4.1-.355L10.954.508v6.66zm6.428-3.795a4.073 4.073 0 012.379 2.351 4.105 4.105 0 01-1.893 5.031c-.605.316-.841.355-2.34.395l-1.683.052v-8.04h1.42a8.38 8.38 0 012.117.211zM27.66.826c-.565 1.577-4.35 12.716-4.35 12.831 0 .106.394.145 1.472.119l1.457-.034.46-1.353.446-1.34h5.442l.447 1.38.447 1.378h1.485c.496.016.992-.001 1.485-.052 0-.065-4.258-12.624-4.403-12.992-.08-.197-.315-.224-2.181-.224-2.049-.002-2.102-.002-2.207.287zm3.247 5.057l.92 2.798h-1.974c-1.524 0-1.958-.04-1.905-.17l.96-2.878c.255-.901.585-1.78.985-2.627.054.053.5 1.354 1.014 2.877zm7.518 1.286v6.634h2.76V.534h-2.76V7.17zm19.979 0v6.634h2.892V8.285h5.652v5.518h2.892V.534h-2.892V5.92h-5.652V.535h-2.892V7.17zm14.196 0v6.634h2.76V.534H72.6V7.17z" fill="#000"/></svg>