<svg width="69" height="15" fill="none" xmlns="http://www.w3.org/2000/svg"><g clip-path="url(#clip0_10323_73727)"><path d="M.425 0h15.28L.425 14.171V0z" fill="#00A0E4"/><path d="M8.063 0H.425v7.084L8.063 0z" fill="#000"/><path d="M53.595 3.055h3.596l-1.985 8.09H51.61l1.985-8.09zm-12.76 8.085h3.267l.591-2.445 1.806 2.446h3.994l-2.878-4.108 4.476-3.982h-3.78L45.45 5.529l.61-2.478h-3.407l-1.818 8.09zm-5.561 0l1.987-8.09h3.595l-1.986 8.09h-3.596zm21.645 0h2.489l1.156-4.615 1.456 4.616h4.024l2.014-8.09h-2.656L64.271 7.51l-1.56-4.46h-3.79l-2.002 8.09zM19.151 9.257a2.367 2.367 0 001.987-1.953s.231-1.4-.296-1.912a1.284 1.284 0 00-.874-.313h-1.38l-.993 4.178h1.556zm-5.46 1.884l2.014-8.09h5.402s3.72.298 3.332 4.08c-.01.11-.19 3.37-4.156 4.01H13.69zm16.256-3.389L29.58 5.68l-1.132 2.07h1.5zm-2.5 1.853l-.973 1.54h-2.368l4.489-8.09H32.7l1.427 8.09h-3.581l-.273-1.54h-2.826z" fill="#00A0E4"/></g><defs><clipPath id="clip0_10323_73727"><path fill="#fff" transform="translate(.425)" d="M0 0h67.633v14.172H0z"/></clipPath></defs></svg>