<svg width="108" height="37" fill="none" xmlns="http://www.w3.org/2000/svg"><path d="M36.884.026V0H1.74l35.143.026zM11.102 13.683a1.75 1.75 0 100 3.5 1.75 1.75 0 000-3.5zm15.283 1.601a4.173 4.173 0 00-1.347-.937 4.65 4.65 0 00-1.75-.323h-2.475v8.643h2.475a4.193 4.193 0 001.75-.35c.507-.19.967-.489 1.347-.875a4.377 4.377 0 001.173-3.07 4.375 4.375 0 00-.315-1.75c-.2-.496-.491-.95-.858-1.338z" fill="#1A1A1A"/><path d="M36.884 0H0v36.481h34.889l73.111.061V.087L36.884 0zM17.987 11.373h5.302a7.174 7.174 0 015.047 2.012 6.999 6.999 0 011.514 2.196 6.947 6.947 0 010 5.424 7 7 0 01-1.514 2.196 6.876 6.876 0 01-2.265 1.461 7.052 7.052 0 01-2.783.551h-5.301v-13.84zm-7.559-.175a4.225 4.225 0 11-3.5 3.5 4.226 4.226 0 013.5-3.447v-.053zm95.954 23.726H36.884V1.75h69.498v33.174z" fill="#1A1A1A"/><path d="M48.939 16.325v-1.216h.779a.874.874 0 00.874-.412l.114-.174-2.817-5.94h1.636l1.916 4.373 1.75-4.374h1.645l-2.704 6.124a2.231 2.231 0 01-2.266 1.619h-.927zm9.431-.14v-2.109a6.222 6.222 0 01-1.522.21c-1.216 0-1.907-.55-1.907-1.802v-1.942h1.452v1.706c0 .604.27.875 1.032.875.32-.002.637-.046.945-.132v-2.45h1.443v5.644H58.37zm4.042-2.424a1.424 1.424 0 001.452 1.444 1.277 1.277 0 001.181-.656h1.444a2.704 2.704 0 01-2.625 1.75 2.808 2.808 0 01-2.878-2.984 2.781 2.781 0 012.834-2.922c1.75 0 2.826 1.347 2.774 3.342l-4.182.026zm0-.997h2.677a1.232 1.232 0 00-1.313-1.286 1.355 1.355 0 00-1.347 1.286h-.017zm5.118.219v-.394c0-2.047.63-3.5 2.939-3.753l2.143-.289v1.164l-2.073.306a1.855 1.855 0 00-1.846 1.837 2.187 2.187 0 011.916-.98 2.458 2.458 0 012.502 2.677 2.625 2.625 0 01-2.773 2.774c-1.549 0-2.808-1.085-2.808-3.342zm4.085.568c0-1.102-.586-1.627-1.295-1.627-.708 0-1.338.516-1.338 1.627s.577 1.636 1.33 1.636c.752 0 1.303-.542 1.303-1.636zm2.615 2.634v-5.643h1.444v2.187h2.354v-2.187h1.452v5.643h-1.452v-2.319h-2.354v2.319h-1.443zm6.842 0v-5.643h1.452v1.837h.875c1.601 0 2.284.604 2.284 1.881 0 1.444-.753 1.925-2.24 1.925h-2.37zm1.452-1.129h.761c.674 0 1.007-.192 1.007-.822 0-.63-.333-.726-1.015-.726h-.753v1.548zm3.99 1.129v-5.643h1.452v5.643h-1.452zm3.053 0v-5.643h1.417v3.85l2.485-3.85h1.452v5.643h-1.417v-3.71l-2.52 3.71h-1.417zm.962-7.603h1.024c0 .333.262.543.752.543s.726-.21.77-.543h1.015c-.088.744-.586 1.304-1.75 1.304-1.163 0-1.758-.56-1.81-1.304zM54.46 28.231v-1.548h-5.81V19.08h1.496v6.387h3.115V19.08h1.505v6.387h1.006v2.764h-1.313zm3.437-3.971a1.427 1.427 0 001.426 1.443 1.277 1.277 0 001.181-.656h1.497a2.704 2.704 0 01-2.669 1.75 2.81 2.81 0 01-2.878-2.984 2.783 2.783 0 012.834-2.922c1.75 0 2.826 1.348 2.774 3.342l-4.165.027zm0-.998h2.678a1.234 1.234 0 00-1.313-1.286 1.356 1.356 0 00-1.347 1.286h-.018zm5.32 3.421V21.04h1.452v2.187h2.344V21.04h1.453v5.643h-1.453v-2.319H64.67v2.319h-1.452zm8.118 0v-4.497h-1.837V21.04h5.118v1.146h-1.837v4.497h-1.444zm4.313 1.837v-7.48h1.444v.726a1.82 1.82 0 011.627-.875c1.365 0 2.458 1.173 2.458 2.949 0 1.776-1.12 2.983-2.44 2.983a1.812 1.812 0 01-1.62-.875v2.572h-1.469zm4.007-4.645c0-1.103-.534-1.846-1.286-1.846s-1.33.7-1.33 1.837.525 1.846 1.33 1.846 1.286-.735 1.286-1.837z" fill="#1A1A1A"/></svg>