<svg width="72" height="11" fill="none" xmlns="http://www.w3.org/2000/svg"><g clip-path="url(#clip0_10323_73665)"><path d="M14.988 1.352h2.044v3.14h.022l2.308-3.14h2.463l-2.837 3.58 3.056 4.11h-2.607l-2.384-3.493h-.022V9.04h-2.044V1.35zm7.99 0h5.406v1.453h-3.363v1.588h3.177v1.454H25.02v1.74h3.484v1.455h-5.528v-7.69zm6.914 0h2.607l2.594 5.222h.021l-.033-5.222h1.87v7.69h-2.54L31.73 3.785h-.022l.066 5.255h-1.88l-.001-7.69zm9.947 1.52h-1.891v-1.52h5.826v1.52h-1.891v6.17h-2.044v-6.17zm7.628.066h-.021l-.989 3.008h1.92l-.91-3.008zm-1.252-1.586h2.505l2.957 7.69h-2.242L48.863 7.4h-2.88l-.604 1.641H43.3l2.913-7.69zm6.948 1.52h-1.891v-1.52h5.826v1.52h-1.891v6.17h-2.044v-6.17zm4.924 4.279c.652.34 1.376.513 2.11.506.65 0 1.265-.132 1.265-.749 0-1.432-3.628-.53-3.628-3.326 0-1.852 1.803-2.359 3.342-2.359a6.49 6.49 0 011.978.287l-.133 1.586a4.112 4.112 0 00-1.703-.352c-.517 0-1.374.045-1.374.716 0 1.245 3.628.405 3.628 3.184 0 1.994-1.672 2.534-3.375 2.534a8.05 8.05 0 01-2.287-.33l.177-1.697zm13.42-1.029c0 2.105-1.363 3.052-3.363 3.052s-3.363-.946-3.363-3.052v-4.77h2.044V5.78c0 1.013.274 1.873 1.32 1.873 1.044 0 1.318-.86 1.318-1.873V1.35h2.044v4.771z" fill="#000"/><path d="M7.071 0H4.287v2.793H7.07V0zm0 7.59H4.287v2.794H7.07V7.59z" fill="#E50019"/><path d="M2.9 5.185L.493 6.59 1.893 9 4.3 7.597 2.9 5.185z" fill="#E50019"/><path d="M1.91 1.365L.498 3.773 2.9 5.187 4.31 2.78l-2.4-1.415zm6.556 3.82l-1.4 2.413 2.408 1.404 1.4-2.413-2.408-1.404z" fill="#E50019"/><path d="M9.458 1.368L7.055 2.78l1.41 2.409 2.403-1.414-1.41-2.408z" fill="#E50019"/></g><defs><clipPath id="clip0_10323_73665"><path fill="#fff" transform="translate(.493)" d="M0 0h71.014v10.384H0z"/></clipPath></defs></svg>