<svg xmlns="http://www.w3.org/2000/svg" xmlns:xlink="http://www.w3.org/1999/xlink"><symbol id="arrow" viewBox="0 0 24 24">
<path d="M16 14L12 10L8 14" stroke="currentColor" stroke-width="1.5" stroke-linecap="round" stroke-linejoin="round" fill="none"/>
</symbol><symbol id="close" viewBox="0 0 24 24">
<path d="M18.7929 20.2072C19.1834 20.5977 19.8166 20.5977 20.2071 20.2072C20.5976 19.8167 20.5976 19.1835 20.2071 18.793L13.4142 12L20.7071 4.70711C21.0976 4.31658 21.0976 3.68342 20.7071 3.29289C20.3166 2.90237 19.6834 2.90237 19.2929 3.29289L12 10.5858L4.70711 3.29298C4.31658 2.90246 3.68342 2.90246 3.29289 3.29299C2.90237 3.68351 2.90237 4.31668 3.29289 4.7072L10.5857 12L3.29289 19.2929C2.90237 19.6834 2.90237 20.3166 3.29289 20.7071C3.68342 21.0976 4.31658 21.0976 4.70711 20.7071L12 13.4143L18.7929 20.2072Z" fill="currentColor"/>
</symbol></svg>